<?xml version="1.0" encoding="UTF-8"?>
<svg width="28px" height="28px" viewBox="0 0 28 28" version="1.1" xmlns="http://www.w3.org/2000/svg" xmlns:xlink="http://www.w3.org/1999/xlink">
    <path d="M16.576781,11.2250051 L16.576781,15.0339267 C16.576781,15.1303551 16.5017811,15.2053549 16.4053527,15.2053549 L15.7946396,15.2053549 C15.7357111,15.2053549 15.6821398,15.1732121 15.6553541,15.1357122 L13.9089287,12.7785737 L13.9089287,15.0392838 C13.9089287,15.1357122 13.8339289,15.2107121 13.7375005,15.2107121 L13.1267873,15.2107121 C13.0303589,15.2107121 12.9553591,15.1357122 12.9553591,15.0392838 L12.9553591,11.2303622 C12.9553591,11.1339338 13.0303589,11.058934 13.1267873,11.058934 L13.7321433,11.058934 C13.7857147,11.058934 13.8446431,11.0857196 13.8714288,11.1339338 L15.6178542,13.4910724 L15.6178542,11.2303622 C15.6178542,11.1339338 15.692854,11.058934 15.7892824,11.058934 L16.3999956,11.058934 C16.496424,11.0535768 16.576781,11.1339338 16.576781,11.2250051 L16.576781,11.2250051 Z M12.1839319,11.0535768 L11.5732187,11.0535768 C11.4767903,11.0535768 11.4017905,11.1285767 11.4017905,11.2250051 L11.4017905,15.0339267 C11.4017905,15.1303551 11.4767903,15.2053549 11.5732187,15.2053549 L12.1839319,15.2053549 C12.2803603,15.2053549 12.3553602,15.1303551 12.3553602,15.0339267 L12.3553602,11.2250051 C12.3553602,11.1339338 12.2803603,11.0535768 12.1839319,11.0535768 L12.1839319,11.0535768 Z M10.7107203,14.2464281 L9.04465196,14.2464281 L9.04465196,11.2250051 C9.04465196,11.1285767 8.9696521,11.0535768 8.8732237,11.0535768 L8.26251054,11.0535768 C8.16608214,11.0535768 8.09108228,11.1285767 8.09108228,11.2250051 L8.09108228,15.0339267 C8.09108228,15.0821409 8.10715368,15.1196408 8.13929648,15.1517836 C8.17143928,15.1785693 8.20893921,15.1999978 8.2571534,15.1999978 L10.7053632,15.1999978 C10.8017916,15.1999978 10.8767915,15.1249979 10.8767915,15.0285695 L10.8767915,14.4178564 C10.8767915,14.3267851 10.8017916,14.2464281 10.7107203,14.2464281 Z M19.7910608,11.0535768 L17.342851,11.0535768 C17.2517797,11.0535768 17.1714227,11.1285767 17.1714227,11.2250051 L17.1714227,15.0339267 C17.1714227,15.1249979 17.2464226,15.2053549 17.342851,15.2053549 L19.7910608,15.2053549 C19.8874892,15.2053549 19.962489,15.1303551 19.962489,15.0339267 L19.962489,14.4232135 C19.962489,14.3267851 19.8874892,14.2517853 19.7910608,14.2517853 L18.1249924,14.2517853 L18.1249924,13.6089293 L19.7910608,13.6089293 C19.8874892,13.6089293 19.962489,13.5339294 19.962489,13.437501 L19.962489,12.8214307 C19.962489,12.7250023 19.8874892,12.6500025 19.7910608,12.6500025 L18.1249924,12.6500025 L18.1249924,12.0071465 L19.7910608,12.0071465 C19.8874892,12.0071465 19.962489,11.9321467 19.962489,11.8357183 L19.962489,11.2250051 C19.9571319,11.1339338 19.8821321,11.0535768 19.7910608,11.0535768 L19.7910608,11.0535768 Z M25.999989,6.37679971 L25.999989,21.6607002 C25.9946208,24.0606958 24.028553,26.0053351 21.6232003,25.999989 L6.33929978,25.999989 C3.93930419,25.9946208 1.99466491,24.0231959 2.000011,21.6232003 L2.000011,6.33929978 C2.00537917,3.93930419 3.97680412,1.99466491 6.37679971,2.000011 L21.6607002,2.000011 C24.0606958,2.00537917 26.0053351,3.97144699 25.999989,6.37679971 Z M22.699984,12.9446448 C22.699984,9.03393769 18.7785627,5.85180068 13.9625001,5.85180068 C9.14643749,5.85180068 5.22501612,9.03393769 5.22501612,12.9446448 C5.22501612,16.4482098 8.33215327,19.3839187 12.5321456,19.9410605 C13.555358,20.160703 13.437501,20.5357023 13.2071443,21.9124855 C13.1696444,22.1321279 13.0303589,22.7749839 13.9625001,22.3839132 C14.8946412,21.9928425 18.992848,19.4214186 20.8303446,17.3107082 C22.094628,15.9178536 22.699984,14.5089276 22.699984,12.9446448 Z" id="Shape" fill="#829AB1" fill-rule="nonzero"></path>
</svg>