<?xml version="1.0" encoding="UTF-8"?>
<svg width="28px" height="28px" viewBox="0 0 28 28" version="1.1" xmlns="http://www.w3.org/2000/svg" xmlns:xlink="http://www.w3.org/1999/xlink">
    <path d="M14,2 C7.37096774,2 2,7.37096774 2,14 C2,20.6290323 7.37096774,26 14,26 C20.6290323,26 26,20.6290323 26,14 C26,7.37096774 20.6290323,2 14,2 Z M19.8935484,10.2209677 L17.9241935,19.5016129 C17.7790323,20.1596774 17.3870968,20.3193548 16.8403226,20.0096774 L13.8403226,17.7983871 L12.3935484,19.1919355 C12.233871,19.3516129 12.0983871,19.4870968 11.7887097,19.4870968 L12.0016129,16.433871 L17.5612903,11.4112903 C17.8032258,11.1983871 17.5080645,11.0774194 17.1887097,11.2903226 L10.3177419,15.616129 L7.35645161,14.6919355 C6.71290323,14.4887097 6.6983871,14.0483871 7.49193548,13.7387097 L19.0612903,9.27741935 C19.5983871,9.08387097 20.0677419,9.40806452 19.8935484,10.2209677 L19.8935484,10.2209677 Z" id="Shape" fill="#829AB1" fill-rule="nonzero"></path>
</svg>