<?xml version="1.0" encoding="UTF-8"?>
<svg width="28px" height="28px" viewBox="0 0 28 28" version="1.1" xmlns="http://www.w3.org/2000/svg" xmlns:xlink="http://www.w3.org/1999/xlink">
    <!-- Generator: Sketch 59.1 (86144) - https://sketch.com -->
    <title>Button/Close</title>
    <desc>Created with Sketch.</desc>
    <defs>
        <rect id="path-1" x="0" y="0" width="28" height="28"></rect>
    </defs>
    <g id="Button/Close" stroke="none" stroke-width="1" fill="none" fill-rule="evenodd">
        <g>
            <mask id="mask-2" fill="white">
                <use xlink:href="#path-1"></use>
            </mask>
            <g id="Mask"></g>
            <path d="M12.6689969,14.0000306 L6.27566227,7.60670348 C5.90810627,7.23914529 5.90811512,6.64321311 6.27567357,6.27566057 C6.64322637,5.90811424 7.23914932,5.90811142 7.60669647,6.27566245 L14,12.668998 L20.3932753,6.27566245 C20.7608036,5.90811142 21.3567548,5.90811424 21.7242832,6.27566057 C22.0919056,6.64321311 22.0919056,7.23914529 21.7242832,7.60670348 L15.3309843,14.0000306 L21.7242832,20.3933388 C22.0918115,20.7608688 22.0918115,21.3568226 21.7242832,21.7243525 C21.3567548,22.0918825 20.7608036,22.0918825 20.3932753,21.7243525 L14,15.3310631 L7.60670588,21.7243525 C7.23914932,22.0918825 6.64323484,22.0918825 6.27568862,21.7243525 C5.90814712,21.3568226 5.9081506,20.7608688 6.27569615,20.3933388 L12.6689969,14.0000306 Z" id="Path" fill="#BCCCDC" fill-rule="nonzero" mask="url(#mask-2)"></path>
        </g>
    </g>
</svg>