<svg xmlns="http://www.w3.org/2000/svg" xmlns:xlink="http://www.w3.org/1999/xlink" width="28" height="28" viewBox="0 0 28 28">
    <defs>
        <path id="a" d="M0 0h28v28H0z"/>
    </defs>
    <g fill="none" fill-rule="evenodd">
        <mask id="b" fill="#fff">
            <use xlink:href="#a"/>
        </mask>
        <path fill="#829AB1" d="M20.73 8.823h-1.513V7.31c0-1.275-1.036-2.31-2.27-2.31H7.31A2.311 2.311 0 0 0 5 7.31v9.637c0 1.234 1.035 2.27 2.31 2.27h1.513v1.513c0 1.274.996 2.27 2.27 2.27h9.637c1.274 0 2.27-.996 2.27-2.27v-9.637c0-1.274-.996-2.27-2.27-2.27zm-3.73.01h-5.992a2.15 2.15 0 0 0-2.176 2.175V17h-1.45c-.115 0-.23-.038-.267-.115A.347.347 0 0 1 7 16.618V7.382c0-.115.038-.23.115-.267.038-.077.152-.115.267-.115h9.236c.115 0 .191.038.267.115.077.038.115.152.115.267v1.45z" mask="url(#b)"/>
    </g>
</svg>
