<svg xmlns="http://www.w3.org/2000/svg" xmlns:xlink="http://www.w3.org/1999/xlink" width="24" height="24" viewBox="0 0 24 24">
    <defs>
        <path id="a" d="M0 0h24v24H0z"/>
    </defs>
    <g fill="none" fill-rule="evenodd">
        <mask id="b" fill="#fff">
            <use xlink:href="#a"/>
        </mask>
        <g fill="#829AB1" fill-rule="nonzero" mask="url(#b)">
            <path d="M11.999 4a7.92 7.92 0 0 0-3.11.63 8.027 8.027 0 0 0-2.542 1.716 8.03 8.03 0 0 0-2.183 4.043A8.012 8.012 0 0 0 4.002 12c-.036 1.238.378 2.653.89 3.661a8.048 8.048 0 0 0 4.186 3.786 8.003 8.003 0 0 0 4.53.39 8.034 8.034 0 0 0 4.044-2.184 8.032 8.032 0 0 0 2.185-4.042 8.003 8.003 0 0 0-.468-4.722 8.032 8.032 0 0 0-1.717-2.543 8.034 8.034 0 0 0-4.043-2.184A8.003 8.003 0 0 0 11.999 4zm0 1.227c.553 0 1.089.074 1.604.198a3.9 3.9 0 0 1-.469.106c-.561.089-1.04.077-1.04.077l.037.005s-.366-.033-.781-.018c-.208.007-.43.024-.654.072-.223.048-.47.095-.708.382-.363.435-.528.781-.664.868-.112.072-.172.072-.426.095a3.405 3.405 0 0 0-1.122.273l.059-.023c-.042.013-.344.006-.643-.03a6.744 6.744 0 0 1 4.807-2.005zm4.533 1.749a6.818 6.818 0 0 1 1.754 2.517l-.048-.015c.043-.138-.027.025-.164.16a7.086 7.086 0 0 1-.521.45c-.38.302-.75.559-.75.559a.613.613 0 0 0-.225.286.62.62 0 0 0-.038.18.616.616 0 0 0 .036.251l.508 1.39-1.008 1.145a.617.617 0 0 0-.14.273l-.177.8-1.472 1.593-.436-.599-.008-1.022a.615.615 0 0 0-.234-.481.615.615 0 0 0-.457-.128l-.976.123-.186-1.404a.613.613 0 0 0-.059-.191l-.609-1.24c.115-.149.18-.241.39-.504.336-.417.795-.918.818-.936a.619.619 0 0 0 .063-.06c-.115.123.03-.006.237-.058.207-.052.487-.098.758-.132.543-.07 1.054-.095 1.054-.095a.615.615 0 0 0 .567-.468l.341-1.408.982-.986zM6.105 11.714c.03.061.066.117.081.15 0 .14 0 .816-.077 1.067-.108.352.06.75.245.94.187.19.38.282.56.36.22.095.297.098.43.13.047.068.07.096.137.205.06.096.115.2.15.273.034.072.027.142.027.005 0 .214.04.324.082.472a7.7 7.7 0 0 0 .145.45c.039.11.044.117.077.204l-.067.078a1.01 1.01 0 0 0-.668.49c-.035.063-.052.124-.075.186a6.738 6.738 0 0 1-1.87-3.941c.1-.117.166-.19.355-.424.169-.207.308-.426.468-.645z"/>
        </g>
    </g>
</svg>
