<svg xmlns="http://www.w3.org/2000/svg" width="28" height="28" viewBox="0 0 28 28">
    <g fill-rule="nonzero">
        <path d="M11.752 3.5H4.56A1.06 1.06 0 0 0 3.5 4.56v7.214c0 .574.463 1.06 1.06 1.06h7.214a1.06 1.06 0 0 0 1.06-1.06V4.56A1.093 1.093 0 0 0 11.751 3.5zM23.419 3.5h-7.193a1.06 1.06 0 0 0-1.06 1.06v7.214c0 .574.464 1.06 1.06 1.06h7.215a1.06 1.06 0 0 0 1.059-1.06V4.56A1.078 1.078 0 0 0 23.419 3.5zM11.752 15.167H4.56A1.06 1.06 0 0 0 3.5 16.226v7.215c0 .574.463 1.059 1.06 1.059h7.214a1.06 1.06 0 0 0 1.06-1.06v-7.214c-.023-.574-.508-1.06-1.082-1.06zM23.419 15.167h-7.193a1.06 1.06 0 0 0-1.06 1.059v7.215c0 .574.464 1.059 1.06 1.059h7.215a1.06 1.06 0 0 0 1.059-1.06v-7.214a1.093 1.093 0 0 0-1.081-1.06z"/>
    </g>
</svg>
