<svg xmlns="http://www.w3.org/2000/svg" xmlns:xlink="http://www.w3.org/1999/xlink" width="78" height="78" viewBox="0 0 78 78">
    <defs>
        <path id="a" d="M0 0h78v78H0z"/>
    </defs>
    <g fill="none" fill-rule="evenodd">
        <mask id="b" fill="#fff">
            <use xlink:href="#a"/>
        </mask>
        <g mask="url(#b)">
            <path d="M17.538 26.667h36.924L37.093 41.81c-.674.586-1.476.587-2.151 0L17.538 26.667zM15.692 29.417l12 10.604-12 11.396zM56.308 29.417v22l-12-11.414z"/>
            <path d="M42.3 41.333l11.238 11H18.462l11.291-10.981 2.997 2.704a4.87 4.87 0 0 0 6.552 0l2.997-2.723z"/>
            <path fill="#A1C4F4" fill-rule="nonzero" d="M17.023 23C14.27 23 12 25.313 12 28.12v22.76c0 2.807 2.27 5.12 5.023 5.12h37.954C57.73 56 60 53.687 60 50.88V28.12c0-2.807-2.27-5.12-5.023-5.12H17.023zm.515 3.667h36.924L37.093 41.81c-.674.586-1.476.587-2.151 0L17.538 26.667zm-1.846 2.75l12 10.604-12 11.396v-22zm40.616 0v22l-12-11.414 12-10.586zM42.299 41.333l11.24 11H18.461l11.291-10.981 2.997 2.704a4.87 4.87 0 0 0 6.552 0l2.997-2.723z"/>
        </g>
        <g mask="url(#b)">
            <path fill="#FFF" d="M59 45.21c-5.398 0-9.79 4.392-9.79 9.79 0 5.398 4.392 9.79 9.79 9.79 5.398 0 9.79-4.392 9.79-9.79 0-5.398-4.392-9.79-9.79-9.79z"/>
            <path fill="#4E7EC2" fill-rule="nonzero" d="M59 45.21c-5.398 0-9.79 4.392-9.79 9.79 0 5.398 4.392 9.79 9.79 9.79 5.398 0 9.79-4.392 9.79-9.79 0-5.398-4.392-9.79-9.79-9.79zm5.739 7.996l-6.236 5.85c-.19.177-.453.28-.722.28v.396l-.009-.396a1.059 1.059 0 0 1-.725-.293l-3.146-3.058a.916.916 0 0 1 .026-1.353 1.05 1.05 0 0 1 .708-.268c.28 0 .54.104.734.293l2.425 2.357 5.503-5.16c.192-.18.448-.28.72-.28.273 0 .53.1.722.28a.917.917 0 0 1 0 1.352z"/>
        </g>
    </g>
</svg>
