<svg xmlns="http://www.w3.org/2000/svg" xmlns:xlink="http://www.w3.org/1999/xlink" width="24" height="24" viewBox="0 0 24 24">
    <defs>
        <path id="a" d="M0 0h24v24H0z"/>
    </defs>
    <g fill="none" fill-rule="evenodd">
        <mask id="b" fill="#fff">
            <use xlink:href="#a"/>
        </mask>
        <path fill="#E66A6A" d="M14.828 2.711l6.46 6.46a4 4 0 0 1 0 5.657l-6.46 6.46a4 4 0 0 1-5.656 0l-6.46-6.46a4 4 0 0 1 0-5.656l6.46-6.46a4 4 0 0 1 5.656 0zm2.968 7.728a5.98 5.98 0 0 0-7.34-4.23 6.017 6.017 0 0 0-4.252 7.352 5.98 5.98 0 0 0 7.34 4.23 6.017 6.017 0 0 0 4.252-7.352zm-2.67-2.366a4.903 4.903 0 0 1 1.618 2.385l-4.142 4.626c-.501.591-1.389.67-1.983.176a1.383 1.383 0 0 1-.5-1.104l-1.407 1.571a4.9 4.9 0 0 1-1.53-2.484l3.81-4.254c.501-.592 1.389-.67 1.983-.177.34.284.51.694.5 1.105z" mask="url(#b)"/>
    </g>
</svg>
