<?xml version="1.0" encoding="UTF-8"?>
<svg width="20px" height="20px" viewBox="0 0 20 20" version="1.1" xmlns="http://www.w3.org/2000/svg" xmlns:xlink="http://www.w3.org/1999/xlink">
    <!-- Generator: Sketch 59.1 (86144) - https://sketch.com -->
    <title>icon/Withdraw/Normal</title>
    <desc>Created with Sketch.</desc>
    <g id="icon/Withdraw/Normal" stroke="none" stroke-width="1" fill="none" fill-rule="evenodd">
        <g id="icon/Withdraw">
            <rect id="Mask" x="0" y="0" width="20" height="20"></rect>
            <path d="M15.43455,8.40147355 L15.5882433,8.40641781 C16.704851,8.48065809 17.6,9.38078933 17.6,10.4683883 L17.6,15.5383507 C17.6,16.6743701 16.6227491,17.6018763 15.4348594,17.6000166 L4.55798011,17.6000166 C3.3713434,17.6023004 2.4,16.6757227 2.4,15.5383507 L2.4,10.4683883 C2.4,9.33275029 3.37124038,8.40674695 4.55778729,8.40674695 L6.26738001,8.4069358 C6.47841399,8.39394787 6.68010397,8.49419494 6.79082022,8.66825289 C6.90262527,8.84402255 6.90262527,9.06524666 6.79082022,9.24101631 C6.69592058,9.39020884 6.53418309,9.48517297 6.36088143,9.50120077 L4.55778729,9.50252225 C3.98876637,9.50252225 3.53784453,9.93120481 3.53786994,10.4683883 L3.53786994,15.5383846 C3.53786994,16.0770884 3.98855516,16.5050239 4.55778729,16.5042168 L15.4350503,16.504217 C16.0035922,16.5053023 16.4529405,16.0775805 16.4529405,15.5383846 L16.4529405,10.4684223 C16.4529405,9.92922527 16.0035581,9.50144269 15.4348594,9.5025901 L13.6356019,9.50110572 C13.4585045,9.48511288 13.2968689,9.39012955 13.2020354,9.24097488 C13.0903086,9.06525044 13.0903086,8.84412053 13.2020354,8.6683961 C13.3126745,8.49438231 13.5142387,8.39410174 13.7188053,8.40678135 L15.43455,8.40147355 Z M14.0976171,13.2259155 L14.2017327,13.2380621 C14.3585416,13.270326 14.4945469,13.3618776 14.5709598,13.4926514 C14.6654075,13.6542899 14.6531142,13.8491748 14.5394784,14.0001455 C14.4294725,14.1462938 14.2415998,14.2288217 14.0506603,14.219637 L5.96218562,14.2196314 C5.66566773,14.2227614 5.41441307,14.0182029 5.39859914,13.7487879 C5.38447823,13.508216 5.56283745,13.3018606 5.81319827,13.242622 L5.91022335,13.2275241 L14.0475462,13.2274755 L14.0976171,13.2259155 Z M9.96588184,2.39995185 L10.0633816,2.40629507 C10.2543406,2.43426856 10.4194999,2.55086011 10.4857521,2.7009489 L13.8652636,5.60729635 C14.0174188,5.75784472 14.0773462,5.97835312 14.0223326,6.18523181 C13.9673173,6.39211718 13.8057735,6.55370813 13.5989367,6.60874012 C13.3920931,6.6637739 13.1716261,6.60381465 13.0288691,6.45865514 L10.5689402,4.44413196 L10.5689285,10.9950306 C10.5714145,11.1550245 10.5094543,11.3092947 10.396998,11.4231013 C10.2845584,11.5368911 10.1310743,11.6006768 9.96990435,11.6001189 C9.8115452,11.5976898 9.66062192,11.5327509 9.55034375,11.4193847 C9.43990306,11.3058513 9.37921222,11.1529994 9.38167066,10.996172 L9.38167066,4.45214541 L6.95486298,6.45002658 C6.84246547,6.56744029 6.68698281,6.63381641 6.52490114,6.63376223 C6.28054572,6.63475333 6.06037885,6.48635806 5.96954631,6.25945853 C5.87871812,6.03256986 5.93563476,5.77320574 6.11650352,5.60216862 L9.4331218,2.75060654 C9.52796408,2.54056842 9.73543538,2.40404637 9.96588184,2.39995185 Z" id="Shape" fill="#A27C1A" fill-rule="nonzero"></path>
        </g>
    </g>
</svg>